<?xml version="1.0" standalone="no"?>
<!DOCTYPE svg PUBLIC "-//W3C//DTD SVG 20010904//EN"
 "http://www.w3.org/TR/2001/REC-SVG-20010904/DTD/svg10.dtd">
<svg version="1.0" xmlns="http://www.w3.org/2000/svg"
 width="700.000000pt" height="700.000000pt" viewBox="0 0 700.000000 700.000000"
 preserveAspectRatio="xMidYMid meet">
<metadata>
Created by potrace 1.14, written by Peter Selinger 2001-2017
</metadata>
<g transform="translate(0.000000,700.000000) scale(0.100000,-0.100000)"
fill="#000000" stroke="none">
<path d="M3311 5770 c-1 -17 -4 -21 -9 -12 -5 7 -18 14 -31 17 -12 2 -19 0
-16 -6 4 -5 12 -6 18 -3 7 4 8 3 4 -1 -12 -14 -37 -15 -37 -2 0 7 -5 6 -10 -3
-9 -13 -11 -13 -20 0 -6 10 -10 11 -10 3 0 -7 -6 -13 -14 -13 -8 0 -17 6 -19
13 -3 7 -6 5 -6 -6 -1 -14 -5 -16 -20 -7 -14 7 -22 7 -27 -2 -5 -7 -3 -8 7 -3
8 5 10 4 6 0 -10 -12 -38 -15 -32 -4 7 11 -24 0 -44 -15 -12 -9 -13 -8 -6 4 7
12 3 11 -18 -2 -14 -10 -30 -18 -34 -18 -4 0 -1 5 7 10 11 7 7 8 -15 6 -17 -2
-30 -8 -30 -14 0 -6 -3 -14 -7 -18 -5 -4 -8 -2 -8 5 0 9 -5 9 -20 1 -11 -6
-25 -8 -30 -5 -6 3 -10 1 -10 -6 0 -7 -3 -9 -7 -6 -3 4 -12 2 -20 -5 -11 -9
-12 -7 -8 8 4 14 2 13 -6 -3 -9 -18 -16 -20 -35 -12 -22 8 -23 7 -15 -9 7 -14
6 -18 -9 -18 -10 0 -16 4 -14 8 3 5 -7 3 -23 -4 -15 -7 -32 -19 -36 -26 -7
-10 -12 -10 -22 -2 -10 9 -16 7 -24 -9 -8 -13 -17 -18 -28 -14 -11 4 -14 3 -9
-5 4 -7 2 -12 -3 -12 -6 0 -11 6 -11 13 0 8 -4 7 -10 -3 -5 -8 -10 -10 -10 -5
0 6 -7 2 -14 -8 -8 -10 -18 -16 -24 -15 -6 2 -18 -6 -27 -17 l-17 -20 6 20 c5
18 4 18 -10 -2 -9 -13 -22 -23 -28 -23 -6 0 -4 5 4 10 10 7 11 10 2 10 -7 0
-15 -7 -19 -16 -3 -8 -12 -13 -21 -9 -12 4 -12 3 -3 -9 10 -12 8 -14 -13 -12
-15 2 -26 -1 -26 -6 0 -6 -7 -8 -15 -4 -8 3 -15 1 -15 -4 0 -6 5 -10 10 -10 6
0 10 -4 10 -9 0 -6 -12 -6 -31 -1 -28 8 -29 8 -17 -7 8 -11 8 -14 1 -10 -6 4
-15 2 -20 -5 -4 -7 -15 -13 -23 -13 -8 0 -14 -5 -13 -12 2 -8 -4 -10 -14 -6
-11 4 -14 3 -9 -5 4 -7 1 -12 -8 -12 -9 0 -16 -4 -16 -9 0 -6 -9 -8 -19 -6
-14 3 -18 -1 -14 -11 3 -9 -2 -14 -17 -14 -19 0 -20 -2 -10 -15 11 -13 10 -14
-5 -9 -13 5 -25 -1 -42 -22 -17 -21 -22 -24 -18 -9 6 18 5 17 -7 -2 -7 -12
-17 -23 -23 -25 -5 -2 -9 -6 -8 -10 2 -5 -2 -9 -7 -9 -6 -1 -14 -2 -20 -3 -5
0 -11 -5 -12 -11 -4 -18 -41 -55 -49 -49 -4 2 -13 -5 -19 -16 -6 -11 -15 -18
-20 -15 -6 4 -7 -1 -3 -11 4 -12 3 -15 -5 -10 -7 4 -12 1 -12 -9 0 -9 -4 -14
-9 -10 -5 3 -12 -4 -16 -15 -4 -11 -11 -18 -16 -15 -5 4 -9 1 -9 -5 0 -6 -5
-8 -12 -4 -8 5 -7 0 2 -11 8 -10 11 -16 5 -13 -13 7 -36 -17 -27 -28 4 -5 -1
-2 -10 5 -15 11 -17 10 -13 -8 2 -12 0 -19 -6 -16 -5 4 -9 1 -9 -5 0 -7 -6
-10 -14 -7 -9 4 -12 0 -9 -13 3 -10 -1 -21 -8 -25 -8 -6 -10 -4 -4 5 5 9 4 11
-4 6 -18 -12 -42 -66 -34 -79 4 -7 -2 -5 -12 3 -17 14 -18 13 -13 -7 5 -17 2
-20 -11 -16 -9 4 -13 3 -9 -2 4 -4 0 -14 -10 -22 -10 -9 -11 -12 -2 -7 9 4 7
-2 -5 -13 -11 -11 -24 -18 -30 -15 -5 3 -3 -3 5 -13 14 -17 13 -18 -2 -12 -20
7 -24 -3 -7 -20 9 -9 5 -11 -14 -9 -15 2 -24 -1 -21 -5 8 -13 -6 -50 -16 -44
-4 3 -11 -2 -14 -11 -9 -24 -7 -31 5 -14 9 13 10 13 6 0 -2 -8 -11 -14 -20
-14 -9 1 -13 -4 -10 -12 3 -8 1 -14 -5 -14 -5 0 -13 -7 -16 -16 -6 -15 -4 -15
11 -3 12 9 10 4 -5 -15 -12 -15 -19 -33 -15 -40 4 -6 -1 -5 -10 3 -15 12 -17
12 -11 -4 5 -11 4 -16 -3 -12 -5 3 -10 0 -10 -8 0 -8 5 -11 11 -8 6 4 5 0 -1
-9 -7 -8 -9 -19 -5 -24 4 -4 0 -3 -9 4 -15 11 -17 9 -15 -22 1 -28 -2 -33 -17
-30 -15 3 -17 1 -7 -11 10 -12 10 -15 0 -15 -7 0 -10 -7 -7 -15 4 -8 1 -17 -5
-21 -7 -5 -8 -2 -3 6 6 9 4 11 -5 5 -10 -6 -10 -11 4 -20 15 -12 15 -13 -1
-20 -10 -5 -22 -7 -27 -6 -5 1 -4 -4 2 -11 8 -11 6 -17 -9 -26 -12 -8 -17 -17
-12 -25 14 -22 11 -36 -5 -30 -10 4 -14 3 -10 -2 4 -4 3 -14 -4 -22 -9 -11 -7
-12 8 -8 12 4 9 0 -6 -9 -14 -8 -20 -15 -14 -16 6 0 11 -7 11 -15 0 -9 -6 -14
-14 -11 -11 5 -11 1 -2 -15 6 -12 7 -19 1 -15 -5 3 -12 -1 -16 -9 -3 -8 0 -15
6 -15 7 0 6 -5 -2 -15 -6 -8 -9 -19 -5 -25 3 -5 1 -10 -6 -10 -8 0 -8 -4 1
-15 11 -13 10 -14 -6 -9 -10 4 -16 4 -12 0 3 -4 3 -20 -2 -36 -5 -18 -4 -32 3
-40 9 -10 9 -11 0 -6 -7 4 -13 2 -13 -4 0 -6 -5 -8 -12 -4 -7 4 -8 3 -4 -5 4
-6 11 -9 15 -7 4 3 8 -2 8 -10 0 -8 -6 -13 -13 -10 -8 3 -16 0 -20 -6 -4 -6
-3 -8 4 -4 6 3 13 2 17 -4 3 -5 0 -10 -7 -10 -9 0 -9 -3 2 -10 11 -7 12 -10 2
-10 -9 0 -11 -7 -7 -21 5 -15 4 -19 -5 -14 -9 6 -9 3 -1 -13 8 -15 7 -23 -3
-31 -7 -6 -17 -7 -22 -3 -4 4 -2 -1 5 -10 7 -9 10 -22 7 -27 -4 -5 -1 -13 5
-17 8 -5 9 -3 4 6 -5 9 -4 11 4 6 6 -4 9 -12 5 -17 -3 -5 -9 -7 -14 -4 -4 3
-11 -2 -14 -11 -3 -8 -2 -12 4 -9 11 7 14 -8 3 -19 -9 -8 -12 -46 -3 -46 3 0
6 -9 6 -19 0 -11 -4 -17 -9 -14 -12 7 -4 -30 8 -39 6 -5 4 -8 -5 -8 -13 0 -13
-1 0 -10 8 -5 10 -10 3 -10 -12 0 -12 -17 0 -37 5 -7 4 -13 -2 -13 -9 0 -7
-37 3 -48 3 -2 1 -12 -4 -22 -5 -10 -6 -20 -3 -24 11 -10 12 -37 2 -30 -5 3
-9 1 -9 -4 0 -6 7 -13 16 -16 15 -6 15 -8 0 -25 -14 -16 -14 -20 -2 -30 16
-13 10 -54 -7 -44 -6 3 -7 1 -3 -5 4 -7 15 -12 24 -12 13 0 14 -2 3 -9 -11 -7
-11 -9 0 -14 12 -5 12 -6 0 -6 -11 -1 -11 -4 0 -18 8 -9 9 -14 3 -10 -6 3 -11
0 -11 -8 0 -8 3 -12 7 -10 12 8 10 -69 -3 -78 -7 -5 -2 -5 13 -1 22 6 23 5 11
-10 -7 -9 -9 -16 -3 -16 5 0 12 -9 15 -20 3 -11 1 -20 -4 -20 -5 0 -2 -12 8
-27 17 -27 17 -28 -1 -13 -13 10 -10 2 8 -25 17 -25 23 -42 17 -48 -7 -7 -6
-17 1 -30 7 -15 7 -22 -3 -28 -8 -5 -9 -9 -4 -9 6 0 16 5 21 10 7 7 11 6 11
-5 0 -8 -4 -15 -9 -15 -5 0 -2 -7 6 -16 18 -18 22 -39 5 -28 -8 5 -8 1 0 -14
6 -12 19 -26 29 -31 9 -6 12 -11 6 -11 -7 0 -15 -7 -18 -16 -6 -15 -4 -15 11
-3 11 9 14 10 9 1 -4 -7 -1 -15 8 -18 12 -4 13 -11 6 -24 -7 -14 -4 -22 13
-34 12 -9 16 -14 10 -11 -7 3 -13 1 -13 -4 0 -6 4 -11 10 -11 5 0 9 -3 9 -7
-1 -5 0 -11 1 -15 1 -5 3 -12 4 -18 0 -5 10 -16 21 -25 19 -14 19 -15 1 -8
-13 4 -17 3 -12 -5 4 -7 15 -12 24 -12 13 0 14 -2 4 -9 -11 -6 -10 -10 3 -15
10 -4 15 -12 11 -21 -3 -9 1 -18 10 -22 8 -3 13 -12 10 -19 -3 -8 3 -18 13
-24 10 -5 22 -21 25 -35 4 -15 11 -23 17 -19 7 4 9 -1 4 -15 -4 -15 -2 -21 8
-21 8 0 18 -7 21 -16 5 -12 3 -14 -7 -8 -7 5 -5 2 5 -7 9 -9 14 -19 11 -23 -4
-3 0 -6 7 -6 7 0 10 -3 7 -6 -4 -4 3 -15 14 -25 11 -9 20 -20 20 -23 -3 -24 0
-30 7 -18 6 9 14 1 26 -27 14 -29 23 -38 35 -33 13 5 14 3 5 -9 -9 -11 -9 -17
1 -26 7 -6 16 -9 19 -6 3 4 6 1 6 -5 0 -7 13 -25 30 -40 16 -16 30 -35 30 -41
0 -7 4 -10 8 -7 4 2 14 -9 21 -25 7 -17 16 -28 19 -24 8 8 52 -36 52 -52 0
-11 19 -18 43 -14 11 2 8 -6 -10 -25 -17 -17 -17 -18 1 -11 13 5 25 0 42 -18
13 -14 26 -25 29 -25 3 0 8 0 11 0 4 0 0 -8 -7 -17 -13 -16 -12 -16 14 0 28
18 28 18 17 -3 -7 -13 -8 -20 -2 -16 6 3 13 -2 15 -11 4 -17 5 -17 6 0 0 9 6
17 12 17 5 0 7 -4 4 -10 -3 -5 -1 -18 4 -27 6 -11 11 -13 11 -5 0 10 3 10 14
0 8 -7 11 -17 8 -22 -3 -5 2 -7 11 -3 11 4 14 2 10 -9 -4 -10 0 -12 11 -8 9 3
16 1 16 -6 0 -6 4 -9 9 -6 5 3 11 -3 14 -14 3 -13 10 -18 21 -14 10 4 18 0 22
-11 4 -9 13 -14 22 -10 12 5 13 3 2 -10 -7 -9 -9 -15 -4 -14 27 5 54 -3 54
-15 0 -8 7 -17 16 -20 9 -4 13 -2 8 5 -3 6 5 3 20 -6 25 -17 38 -34 14 -19 -7
5 -8 3 -4 -5 5 -7 10 -10 13 -7 3 3 18 -1 33 -9 15 -8 31 -11 35 -7 4 4 4 -4
0 -18 -7 -25 -7 -25 10 -5 9 11 14 15 11 9 -8 -17 19 -25 34 -11 8 7 11 8 7 1
-4 -6 5 -17 18 -24 13 -7 21 -18 18 -24 -4 -6 1 -5 10 3 15 12 17 11 17 -5 0
-16 2 -17 10 -4 7 11 10 11 10 2 0 -7 5 -10 10 -7 6 3 10 1 10 -5 0 -6 5 -8
10 -5 6 3 10 1 10 -5 0 -6 8 -10 18 -8 11 2 16 -2 14 -12 -3 -11 2 -9 18 5 20
18 21 18 14 0 -6 -15 -4 -17 10 -12 10 4 19 1 22 -7 3 -8 14 -12 25 -9 13 4
19 0 19 -10 0 -11 6 -13 22 -9 12 3 19 1 15 -5 -3 -5 0 -10 8 -10 8 0 12 5 9
11 -3 6 5 0 17 -14 15 -17 20 -19 16 -7 -4 9 -2 17 3 17 6 0 10 -8 10 -17 0
-15 2 -16 10 -3 6 9 10 10 10 3 0 -6 9 -10 20 -8 11 2 20 -2 20 -8 0 -7 4 -6
10 3 8 13 10 12 10 -2 0 -10 5 -18 11 -18 5 0 7 6 3 13 -6 8 -3 8 9 -2 9 -7
24 -11 32 -7 9 3 13 2 10 -3 -3 -5 -1 -12 4 -15 5 -3 12 1 15 9 4 13 10 14 26
5 11 -6 18 -14 16 -19 -3 -4 8 -5 25 -3 20 3 29 0 29 -9 0 -11 3 -11 11 1 8
11 12 12 15 3 4 -8 13 -9 29 -3 15 6 27 6 30 0 3 -6 15 -15 27 -21 15 -8 19
-8 14 0 -4 6 -2 11 4 11 6 0 8 6 4 13 -4 6 2 4 13 -6 11 -10 27 -15 37 -11 9
4 16 1 16 -6 0 -10 3 -10 15 0 8 7 15 8 15 3 0 -5 9 -9 19 -9 11 0 17 4 15 8
-3 4 0 8 5 8 6 0 11 -3 11 -7 0 -11 122 -9 139 2 10 5 16 4 19 -3 2 -7 8 -12
13 -12 6 0 7 6 3 13 -5 9 -4 9 6 0 9 -8 19 -9 32 -2 13 7 18 6 18 -3 1 -8 7
-5 15 6 13 17 15 17 15 3 0 -13 5 -15 25 -7 15 6 26 6 30 -1 8 -12 25 -2 25
14 0 7 -4 6 -10 -3 -6 -9 -10 -10 -10 -3 0 17 17 25 26 12 4 -8 9 -7 15 2 7
11 9 11 9 1 0 -8 5 -10 12 -6 18 11 59 14 53 4 -7 -11 22 -7 32 5 4 4 2 5 -6
0 -10 -6 -12 -4 -6 4 5 9 11 9 17 3 13 -13 60 6 52 22 -3 6 1 2 10 -8 14 -17
16 -18 22 -2 5 13 9 14 20 5 8 -7 14 -7 14 -2 0 6 12 9 26 7 14 -1 27 3 30 11
3 7 14 12 25 10 10 -2 21 0 24 6 4 5 11 9 16 9 6 0 8 -4 5 -8 -3 -5 2 -9 10
-9 8 0 13 6 10 13 -3 8 -1 16 4 19 6 4 10 2 10 -4 0 -15 41 -4 56 16 11 14 13
15 14 3 0 -12 2 -12 9 -2 4 8 11 13 15 13 26 -4 36 0 30 12 -4 6 -3 9 1 4 5
-4 18 -1 31 7 12 8 25 12 28 9 12 -13 33 -11 33 3 0 11 -3 11 -16 1 -14 -11
-14 -10 -2 6 11 14 16 15 29 5 13 -10 14 -10 8 0 -5 8 1 12 19 12 14 0 28 6
31 14 3 8 11 13 18 10 7 -3 23 4 36 16 25 22 35 26 25 10 -3 -6 1 -7 9 -4 9 3
14 10 11 14 -6 10 24 22 35 15 5 -3 12 0 16 6 4 7 3 9 -4 5 -6 -3 -13 -3 -16
2 -2 4 7 9 20 10 17 1 23 -2 18 -10 -4 -7 -3 -8 5 -4 6 4 9 12 6 17 -4 5 -1 9
5 9 6 0 8 6 4 13 -4 6 -4 9 1 5 4 -4 15 -2 23 5 13 9 14 9 8 0 -5 -9 -2 -11 8
-7 9 3 14 11 13 17 -1 7 6 11 16 11 9 -1 17 2 17 8 0 5 6 6 13 2 9 -6 9 -5 -1
8 -10 13 -9 15 13 13 14 -2 23 1 19 6 -3 5 0 9 6 9 6 0 8 6 4 13 -4 6 -4 9 0
5 9 -8 66 11 66 22 0 17 33 41 48 35 13 -5 13 -3 1 12 -8 9 -9 14 -3 10 6 -3
20 1 30 9 10 9 13 12 5 8 -9 -5 -12 -3 -7 5 4 6 12 9 17 6 5 -4 20 6 33 20 14
15 29 24 35 21 6 -4 8 2 6 15 -2 12 -2 19 2 16 3 -4 14 -2 25 4 11 6 17 13 14
17 -3 3 5 13 20 22 14 10 26 21 27 26 1 5 5 8 10 7 6 -3 11 12 8 29 0 4 6 5
14 2 9 -4 15 0 15 10 0 9 5 16 11 16 5 0 7 -5 3 -12 -4 -6 -3 -8 4 -5 5 4 9
18 8 31 -2 16 1 23 9 20 7 -3 15 2 19 11 4 10 12 15 22 11 8 -3 13 -2 10 2 -5
9 20 58 28 55 15 -7 19 -2 6 7 -13 8 -13 10 2 10 9 0 20 5 24 12 4 6 3 8 -4 4
-6 -3 -14 -1 -18 5 -4 7 -3 9 3 6 6 -4 20 2 32 12 22 19 29 37 9 25 -7 -4 -8
-3 -4 5 4 6 12 9 17 6 5 -4 10 -1 10 4 1 6 2 15 3 20 0 5 5 13 10 18 5 4 6 3
2 -4 -3 -6 -2 -14 3 -17 5 -4 8 5 7 18 -2 16 1 23 10 19 8 -3 11 2 10 14 -5
27 4 36 22 21 9 -7 13 -8 9 -2 -4 7 0 17 8 24 12 10 13 16 3 28 -11 13 -10 15
5 9 15 -6 17 -3 12 14 -5 16 -4 19 6 14 9 -6 11 -2 6 14 -4 18 -3 20 8 11 11
-10 13 -8 10 8 -2 12 3 23 11 26 9 3 12 10 9 16 -3 5 -1 10 5 10 6 0 8 5 4 12
-5 8 -2 9 10 5 14 -6 15 -4 5 14 -7 13 -7 19 -1 15 6 -3 13 -2 17 4 3 5 1 10
-5 10 -6 0 -8 5 -5 10 4 6 10 8 15 5 5 -3 11 -1 15 5 3 5 0 10 -7 10 -8 0 -7
4 4 11 11 6 15 16 11 26 -5 12 -3 14 8 8 8 -4 11 -5 7 0 -4 4 1 20 10 34 10
14 18 33 17 41 -1 8 4 21 9 29 9 12 8 13 -4 7 -8 -4 -7 -1 4 8 10 8 20 28 22
43 8 54 10 65 20 71 5 4 9 17 8 29 -1 13 3 20 9 16 6 -4 8 0 4 10 -3 10 -2 17
3 17 6 0 10 -5 10 -12 0 -6 3 -8 6 -5 4 4 2 12 -4 20 -7 8 -7 18 -2 27 5 9 5
19 -2 27 -8 11 -7 12 7 7 14 -6 16 -4 9 7 -12 20 -14 40 -3 33 5 -3 6 -11 3
-17 -4 -7 -3 -8 1 -4 15 13 18 60 4 51 -7 -4 -5 3 4 16 11 17 13 27 6 36 -7 8
-6 15 2 20 8 5 9 3 4 -6 -6 -9 -4 -11 4 -5 8 4 11 21 9 40 -2 19 -1 32 3 30 3
-3 5 18 3 46 -2 39 1 49 11 45 9 -3 12 0 8 10 -3 7 -10 14 -17 14 -6 0 -4 5 6
10 12 8 15 19 11 51 -5 34 -3 41 8 34 11 -7 12 -6 2 6 -14 17 -14 28 -1 53 7
13 7 16 -1 12 -6 -4 -11 -4 -11 -1 0 4 5 16 11 27 9 16 8 19 -3 12 -11 -6 -11
-5 0 8 8 10 9 19 3 22 -11 7 -9 25 3 45 5 8 4 16 -5 21 -10 7 -10 11 0 24 8
10 9 16 3 16 -6 0 -10 9 -9 20 1 11 5 20 10 20 4 0 5 5 2 10 -4 6 -9 22 -11
37 -3 15 -10 34 -17 43 -6 8 -1 6 13 -5 18 -14 21 -15 11 -3 -7 9 -10 22 -6
28 4 6 1 9 -6 8 -7 -2 -14 7 -15 19 -1 14 3 20 10 16 6 -4 5 1 -3 10 -8 10
-11 20 -8 24 4 3 2 12 -4 20 -8 8 -8 13 -1 13 12 0 10 26 -3 37 -4 4 -5 2 0
-6 6 -10 4 -12 -4 -7 -9 6 -9 12 3 25 17 19 10 37 -8 22 -8 -6 -11 0 -11 20 0
16 4 29 8 29 4 0 3 9 -3 21 -7 11 -9 27 -6 35 3 8 -1 17 -9 20 -8 4 -12 10 -9
15 3 5 0 9 -7 9 -8 0 -8 4 1 15 7 9 8 15 2 15 -6 0 -9 11 -7 25 1 17 -3 25
-13 25 -9 0 -13 7 -9 19 3 12 -1 22 -11 26 -11 4 -12 9 -4 17 8 8 7 14 -3 25
-8 7 -12 20 -9 28 4 9 0 15 -7 15 -11 0 -11 3 1 10 13 8 12 10 -4 10 -11 0
-16 3 -13 7 4 3 2 12 -4 19 -6 8 -9 21 -5 29 3 8 -4 23 -15 33 -13 13 -17 25
-13 38 4 10 4 16 -1 12 -4 -4 -14 -1 -21 7 -16 16 -19 29 -4 20 6 -3 10 -1 10
4 0 6 -3 11 -8 11 -4 0 -13 9 -20 21 -9 13 -9 18 -2 14 7 -4 7 1 -2 14 -7 12
-17 21 -22 21 -4 0 -6 9 -3 21 4 17 3 18 -9 8 -12 -10 -13 -9 -8 6 5 12 0 23
-17 36 -20 16 -21 18 -4 13 15 -4 13 -1 -5 10 -14 8 -19 15 -12 16 9 0 10 3 2
13 -6 6 -18 21 -26 32 -9 11 -12 14 -8 6 5 -10 3 -12 -5 -7 -9 6 -9 11 0 22
10 12 9 13 -5 8 -13 -5 -15 -2 -10 12 4 11 4 16 0 12 -5 -4 -14 -1 -21 5 -10
9 -10 15 -1 26 9 12 8 13 -8 8 -13 -5 -17 -3 -13 7 4 11 1 13 -11 9 -15 -6
-15 -5 -3 10 12 15 12 17 -2 12 -8 -4 -18 -1 -23 6 -4 8 -3 10 4 5 8 -5 10 -2
6 8 -3 9 -16 16 -27 16 -16 0 -18 3 -9 12 14 14 16 32 3 24 -5 -3 -17 2 -28
12 -10 9 -14 14 -9 10 6 -5 15 -8 20 -8 6 0 -1 8 -14 17 -14 10 -29 17 -34 15
-5 -2 -3 5 5 14 9 12 9 15 2 10 -8 -4 -13 -2 -13 6 0 9 -3 9 -10 -2 -8 -12
-10 -9 -10 12 0 18 -7 29 -20 33 -11 3 -20 12 -20 18 0 7 -4 6 -11 -3 -8 -12
-9 -10 -4 8 6 20 -2 27 -27 23 -4 0 -5 8 -3 19 3 14 -2 20 -16 20 -10 0 -19 5
-19 11 0 5 -4 7 -10 4 -5 -3 -10 1 -10 9 0 9 -5 16 -11 16 -5 0 -7 5 -4 10 4
6 -6 10 -21 10 -27 0 -27 1 -8 15 18 13 18 14 -5 8 -16 -4 -22 -2 -18 4 4 6
-3 13 -14 16 -16 4 -20 11 -15 24 4 9 4 14 0 10 -4 -4 -18 2 -30 14 -13 12
-30 19 -38 16 -11 -5 -16 0 -16 13 0 11 -7 20 -15 20 -9 0 -18 7 -21 15 -4 8
-10 12 -15 9 -5 -3 -9 0 -9 5 0 6 -7 11 -15 11 -8 0 -22 11 -31 25 -9 14 -20
22 -26 19 -5 -3 -16 2 -24 12 -9 11 -13 13 -9 7 3 -7 1 -13 -4 -13 -6 0 -11 7
-11 15 0 8 -9 15 -20 15 -14 0 -20 7 -21 23 0 21 -1 21 -9 2 -7 -17 -9 -17 -9
-2 -1 9 -6 17 -12 17 -5 0 -7 -6 -3 -12 9 -16 -38 22 -49 39 -4 7 -15 9 -24 6
-10 -4 -14 -2 -9 5 3 6 1 14 -5 18 -8 4 -9 3 -5 -4 4 -7 2 -12 -3 -12 -6 0
-11 5 -11 11 0 5 -4 8 -9 4 -5 -3 -15 1 -23 8 -7 8 -21 13 -31 11 -9 -1 -15 2
-12 6 3 5 -5 14 -17 21 -22 12 -22 11 -8 -7 14 -19 14 -19 -7 0 -13 10 -21 22
-18 26 2 4 -7 5 -21 2 -15 -3 -29 0 -33 7 -4 6 -19 12 -33 13 -15 1 -24 6 -22
10 3 4 -7 8 -21 8 -18 0 -24 4 -19 13 5 7 0 6 -11 -3 -11 -9 -16 -10 -11 -2 5
8 -2 12 -26 13 -18 1 -37 1 -41 0 -5 -1 -6 3 -2 9 6 10 -7 14 -34 11 -8 -2
-10 2 -5 11 6 10 4 10 -9 -1 -14 -11 -18 -11 -24 5 -6 16 -7 16 -14 -2 -7 -17
-8 -16 -8 5 -1 24 -1 24 -16 5 -13 -16 -14 -16 -9 -1 7 20 -6 22 -25 5 -11
-11 -12 -10 -6 0 4 8 2 13 -6 11 -27 -3 -40 1 -34 12 4 6 -3 5 -14 -3 -15 -9
-24 -10 -29 -2 -11 16 -50 24 -56 10 -3 -7 -5 -7 -5 2 -1 9 -6 10 -20 3 -15
-8 -20 -7 -26 6 -3 10 -9 13 -13 8 -4 -6 -19 -10 -34 -11 -20 0 -25 3 -17 12
7 8 6 15 -2 20 -8 4 -9 3 -5 -4 10 -16 -26 -15 -43 1 -10 10 -11 8 -5 -8 l7
-20 -23 20 -23 20 7 -20 c5 -15 4 -17 -5 -8 -6 6 -18 9 -27 6 -11 -5 -13 -2
-7 6 6 11 3 11 -16 1 -18 -10 -24 -10 -27 -1 -3 9 -7 9 -18 0 -11 -9 -14 -9
-14 0 0 7 -5 9 -12 5 -16 -10 -58 -14 -58 -6 0 4 -11 7 -24 7 -13 0 -22 -3
-20 -7 6 -9 -51 -2 -67 8 -9 5 -10 2 -6 -10 6 -14 4 -15 -14 -5 -17 8 -23 8
-29 -1 -6 -9 -9 -8 -13 6 -4 15 -5 13 -6 -6z m1634 -500 c10 -11 16 -20 13
-20 -3 0 -13 9 -23 20 -10 11 -16 20 -13 20 3 0 13 -9 23 -20z m762 -1232 c-3
-8 -6 -5 -6 6 -1 11 2 17 5 13 3 -3 4 -12 1 -19z m-97 -1392 c0 -3 -4 -8 -10
-11 -5 -3 -10 -1 -10 4 0 6 5 11 10 11 6 0 10 -2 10 -4z m-170 -330 c0 -3 -4
-8 -10 -11 -5 -3 -10 -1 -10 4 0 6 5 11 10 11 6 0 10 -2 10 -4z m-2175 -1036
c3 -5 1 -10 -4 -10 -6 0 -11 5 -11 10 0 6 2 10 4 10 3 0 8 -4 11 -10z"/>
<path d="M1890 1936 c0 -2 8 -10 18 -17 15 -13 16 -12 3 4 -13 16 -21 21 -21
13z"/>
</g>
</svg>
